<svg viewBox="0 0 16 16"><path fill="#d9230f" d="M15.1881906,13.75 C15.5770795,14.3680556 15.6517323,14.8975694 15.4121489,15.3385417 C15.1725656,15.7795139 14.6847184,16 13.9486073,16 L1.94860727,16 C1.21249616,16 0.724648941,15.7795139 0.485065608,15.3385417 C0.245482274,14.8975694 0.320135052,14.3680556 0.709023941,13.75 L5.94860727,5.48958333 L5.94860727,1.33333333 L5.28194061,1.33333333 C5.10138505,1.33333333 4.94513505,1.26736111 4.81319061,1.13541667 C4.68124616,1.00347222 4.61527394,0.847222222 4.61527394,0.666666667 C4.61527394,0.486111111 4.68124616,0.329861111 4.81319061,0.197916667 C4.94513505,0.0659722222 5.10138505,0 5.28194061,0 L10.6152739,0 C10.7958295,0 10.9520795,0.0659722222 11.0840239,0.197916667 C11.2159684,0.329861111 11.2819406,0.486111111 11.2819406,0.666666667 C11.2819406,0.847222222 11.2159684,1.00347222 11.0840239,1.13541667 C10.9520795,1.26736111 10.7958295,1.33333333 10.6152739,1.33333333 L9.94860727,1.33333333 L9.94860727,5.48958333 L15.1881906,13.75 Z M7.07360727,6.19791667 L4.24027394,10.6666667 L11.6569406,10.6666667 L8.82360727,6.19791667 L8.61527394,5.875 L8.61527394,1.33333333 L7.28194061,1.33333333 L7.28194061,5.875 L7.07360727,6.19791667 Z"/></svg>
